<svg xmlns="http://www.w3.org/2000/svg" width="700" height="820" viewBox="0 0 700 820" fill="none">
  <rect width="700" height="820" rx="32" fill="url(#a)"/>
  <circle cx="350" cy="275" r="120" fill="#FCE7A8"/>
  <path d="M250 630C250 553.785 311.785 492 388 492H412C488.215 492 550 553.785 550 630V646H250V630Z" fill="#002B5C"/>
  <path d="M212 644C212 570.546 271.546 511 345 511H355C428.454 511 488 570.546 488 644V700H212V644Z" fill="#113C70"/>
  <path d="M294 236C294 205.072 319.072 180 350 180C380.928 180 406 205.072 406 236V314C406 344.928 380.928 370 350 370C319.072 370 294 344.928 294 314V236Z" fill="#002B5C"/>
  <path d="M228 720H584" stroke="#8FD000" stroke-width="14" stroke-linecap="round"/>
  <text x="72" y="96" fill="#002B5C" font-family="Outfit, Arial, sans-serif" font-size="42" font-weight="800">BEE REMOVAL</text>
  <text x="72" y="144" fill="#8FD000" font-family="Outfit, Arial, sans-serif" font-size="42" font-weight="800">LOCAL HOUSTON TEAM</text>
  <text x="72" y="760" fill="#FFFFFF" font-family="Inter, Arial, sans-serif" font-size="30" font-weight="700">Safe removal. Clear next steps.</text>
  <defs>
    <linearGradient id="a" x1="75" y1="69" x2="612" y2="747" gradientUnits="userSpaceOnUse">
      <stop stop-color="#FFF5CF"/>
      <stop offset=".55" stop-color="#F8FBFE"/>
      <stop offset="1" stop-color="#DCEBFA"/>
    </linearGradient>
  </defs>
</svg>
